HIERARCHY
ROOT Hips
{
    OFFSET 0.000000 0.000000 0.000000
    CHANNELS 6 Xposition Yposition Zposition Zrotation Xrotation Yrotation
    JOINT Spine
    {
        OFFSET -0.000000 7.236184 0.000000
        CHANNELS 3 Zrotation Xrotation Yrotation
        JOINT Spine1
        {
            OFFSET -0.000000 20.420147 0.000000
            CHANNELS 3 Zrotation Xrotation Yrotation
            JOINT Neck
            {
                OFFSET -0.000000 20.336288 1.848754
                CHANNELS 3 Zrotation Xrotation Yrotation
                JOINT Head
                {
                    OFFSET -0.000000 12.354461 -1.764923
                    CHANNELS 3 Zrotation Xrotation Yrotation
                    End Site
                    {
                        OFFSET -0.000000 22.061537 0.000000
                    }
                }
            }
            JOINT LeftShoulder
            {
                OFFSET 3.573296 18.396038 -0.314103
                CHANNELS 3 Zrotation Xrotation Yrotation
                JOINT LeftArm
                {
                    OFFSET 10.880760 0.000000 0.000000
                    CHANNELS 3 Zrotation Xrotation Yrotation
                    JOINT LeftForeArm
                    {
                        OFFSET 27.185530 0.000000 0.000000
                        CHANNELS 3 Zrotation Xrotation Yrotation
                        JOINT LeftHand
                        {
                            OFFSET 27.825975 0.000000 0.000000
                            CHANNELS 3 Zrotation Xrotation Yrotation
                            End Site
                            {
                                OFFSET 13.236923 0.000000 0.000000
                            }
                        }
                    }
                }
            }
            JOINT RightShoulder
            {
                OFFSET -3.474926 18.396038 -0.314103
                CHANNELS 3 Zrotation Xrotation Yrotation
                JOINT RightArm
                {
                    OFFSET -10.880760 0.000000 0.000000
                    CHANNELS 3 Zrotation Xrotation Yrotation
                    JOINT RightForeArm
                    {
                        OFFSET -27.185530 0.000000 0.000000
                        CHANNELS 3 Zrotation Xrotation Yrotation
                        JOINT RightHand
                        {
                            OFFSET -27.825975 0.000000 0.000000
                            CHANNELS 3 Zrotation Xrotation Yrotation
                            End Site
                            {
                                OFFSET -13.236923 0.000000 0.000000
                            }
                        }
                    }
                }
            }
        }
    }
    JOINT LeftUpLeg
    {
        OFFSET 8.824615 0.000000 0.000000
        CHANNELS 3 Zrotation Xrotation Yrotation
        JOINT LeftLeg
        {
            OFFSET -0.000000 -35.111282 0.000000
            CHANNELS 3 Zrotation Xrotation Yrotation
            JOINT LeftFoot
            {
                OFFSET -0.000000 -42.324711 0.000000
                CHANNELS 3 Zrotation Xrotation Yrotation
                JOINT LeftToeBase
                {
                    OFFSET -0.000000 -5.735999 13.236923
                    CHANNELS 3 Zrotation Xrotation Yrotation
                    End Site
                    {
                        OFFSET -0.000000 0.000000 3.529846
                    }
                }
            }
        }
    }
    JOINT RightUpLeg
    {
        OFFSET -8.824615 0.000000 0.000000
        CHANNELS 3 Zrotation Xrotation Yrotation
        JOINT RightLeg
        {
            OFFSET -0.000000 -35.111282 0.000000
            CHANNELS 3 Zrotation Xrotation Yrotation
            JOINT RightFoot
            {
                OFFSET -0.000000 -42.324711 0.000000
                CHANNELS 3 Zrotation Xrotation Yrotation
                JOINT RightToeBase
                {
                    OFFSET -0.000000 -5.735999 13.236923
                    CHANNELS 3 Zrotation Xrotation Yrotation
                    End Site
                    {
                        OFFSET -0.000000 0.000000 3.529846
                    }
                }
            }
        }
    }
}
MOTION
Frames:    8
Frame Time:    0.008333
-6.076192    81.423195    113.495407    0.259733    -6.546947    -172.662399    -3.061750    -12.215055    0.022162    -1.766207    5.859428    0.440196    1.502765    12.294291    -6.099070    15.880194    -3.891540    -3.603591    5.962432    7.444550    -11.912838    -42.383606    20.304829    -61.463116    8.304790    -27.552710    -114.468773    12.363125    -14.828987    6.469460    -1.153052    7.890262    5.105732    43.003334    -0.500944    45.165215    -10.235507    -35.226856    119.451485    -11.513034    -19.269276    -3.159451    7.081155    -16.525051    0.967386    0.261792    21.516382    3.634671    -7.924896    -9.219536    -10.816331    -0.248152    1.337535    0.274415    -9.331015    -8.683528    -6.311697    11.587483    20.878431    -9.621375    0.000000    0.000000    0.000000    0.000000    0.000000    0.000000    
-6.086276    81.390938    113.522804    0.337400    -6.566082    -172.444672    -3.006987    -12.160320    -0.011520    -1.726375    5.851815    0.397110    1.496865    12.276208    -6.101961    15.858447    -3.924441    -3.606064    5.937348    7.450226    -11.893793    -42.364059    20.397837    -61.520958    8.319996    -27.622051    -114.494675    12.407334    -14.874215    6.455440    -1.175549    7.893152    5.087524    42.979912    -0.519686    45.023476    -10.073796    -35.092926    119.748657    -11.522120    -19.280331    -3.199952    7.090333    -16.885874    0.816141    0.293234    21.976791    3.645064    -7.961766    -9.338447    -10.914789    -0.234576    1.315118    0.259412    -9.291133    -8.838427    -6.395988    11.603937    21.151941    -9.740949    0.000000    0.000000    0.000000    0.000000    0.000000    0.000000
-6.094174    81.355194    113.552002    0.424751    -6.584543    -172.204697    -2.952489    -12.104686    -0.045318    -1.675015    5.851047    0.353338    1.484439    12.252288    -6.107394    15.844516    -3.960010    -3.609287    5.907989    7.456891    -11.864451    -42.332253    20.507725    -61.586426    8.334986    -27.691641    -114.517250    12.425982    -14.922344    6.439103    -1.188606    7.912841    5.067458    42.959557    -0.549028    44.859905    -9.902598    -34.932911    120.059509    -11.532772    -19.275278    -3.237082    7.104396    -17.273342    0.655693    0.327407    22.470026    3.647387    -8.001940    -9.463747    -11.020318    -0.220027    1.291407    0.243333    -9.245656    -9.001997    -6.489775    11.626734    21.444376    -9.879607    0.000000    0.000000    0.000000    0.000000    0.000000    0.000000
-6.100007    81.315468    113.583099    0.522633    -6.602119    -171.938477    -2.898448    -12.047237    -0.079272    -1.611367    5.856251    0.309177    1.465587    12.223465    -6.116652    15.839242    -4.000015    -3.614162    5.874601    7.465992    -11.824781    -42.286743    20.634846    -61.662830    8.349786    -27.760952    -114.535553    12.420073    -14.973173    6.420484    -1.190598    7.950908    5.045112    42.941376    -0.594549    44.669888    -9.719638    -34.742569    120.386078    -11.543529    -19.253618    -3.269821    7.122543    -17.689613    0.484104    0.365169    22.997770    3.639828    -8.045536    -9.595231    -11.133619    -0.204371    1.266129    0.226029    -9.194769    -9.175580    -6.596100    11.656416    21.759373    -10.040059    0.000000    0.000000    0.000000    0.000000    0.000000    0.000000
-6.103774    81.272003    113.615540    0.630180    -6.618124    -171.646378    -2.846309    -11.988219    -0.112294    -1.535359    5.866604    0.265595    1.440184    12.191015    -6.131306    15.844636    -4.045077    -3.621891    5.837039    7.478482    -11.775996    -42.226311    20.777441    -61.751408    8.363931    -27.827591    -114.548256    12.391014    -15.025051    6.399282    -1.179472    8.008527    5.020360    42.924259    -0.661517    44.451096    -9.526026    -34.521240    120.724632    -11.552313    -19.214521    -3.296049    7.143507    -18.129074    0.302351    0.406948    23.551981    3.619895    -8.092150    -9.730236    -11.252853    -0.187730    1.240108    0.207633    -9.139603    -9.356714    -6.715974    11.693273    22.094303    -10.221273    0.000000    0.000000    0.000000    0.000000    0.000000    0.000000
-6.105646    81.224648    113.649071    0.747447    -6.632030    -171.325485    -2.796724    -11.927246    -0.143843    -1.446760    5.881406    0.223113    1.408022    12.155621    -6.153234    15.862769    -4.095764    -3.633897    5.795133    7.494973    -11.718781    -42.150345    20.934437    -61.854198    8.376227    -27.888655    -114.555237    12.340373    -15.076438    6.376038    -1.153625    8.086682    4.992257    42.906685    -0.754152    44.199451    -9.322377    -34.268219    121.073738    -11.556756    -19.157928    -3.313972    7.165868    -18.590477    0.108811    0.453310    24.130058    3.585632    -8.140925    -9.867599    -11.377331    -0.169892    1.213332    0.187914    -9.080745    -9.544549    -6.852212    11.737329    22.449900    -10.421752    0.000000    0.000000    0.000000    0.000000    0.000000    0.000000
-6.105843    81.173721    113.683128    0.873113    -6.643267    -170.975311    -2.750806    -11.864887    -0.173120    -1.346586    5.900422    0.182391    1.368585    12.118687    -6.184142    15.896546    -4.152244    -3.651392    5.749008    7.516304    -11.653839    -42.058479    21.102062    -61.972733    8.384780    -27.939423    -114.555969    12.269839    -15.125108    6.350064    -1.112074    8.185265    4.961042    42.886906    -0.875068    43.911987    -9.111981    -33.987015    121.428192    -11.553984    -19.084614    -3.321599    7.187443    -19.068388    -0.096754    0.504463    24.723858    3.535718    -8.191307    -10.004532    -11.505621    -0.150883    1.186655    0.166896    -9.019857    -9.736099    -7.006447    11.788545    22.823246    -10.636793    0.000000    0.000000    0.000000    0.000000    0.000000    0.000000
-6.104632    81.119217    113.717361    1.006958    -6.651162    -170.592453    -2.708865    -11.801159    -0.200266    -1.235454    5.924045    0.144554    1.320487    12.079711    -6.226247    15.949891    -4.213541    -3.675984    5.698702    7.542512    -11.580250    -41.950020    21.278542    -62.110146    8.387706    -27.975666    -114.550293    12.179360    -15.169552    6.320868    -1.054354    8.303873    4.925736    42.863262    -1.026240    43.584106    -8.896909    -33.679783    121.785660    -11.541632    -18.994970    -3.317041    7.206407    -19.560905    -0.316082    0.560845    25.329819    3.468386    -8.242495    -10.139437    -11.637288    -0.130242    1.159248    0.144072    -8.957749    -9.929502    -7.181298    11.846920    23.213987    -10.863818    0.000000    0.000000    0.000000    0.000000    0.000000    0.000000
